<mxfile host="app.diagrams.net" modified="2022-10-31T07:59:09.680Z" agent="5.0 (Windows NT 10.0; Win64; x64) AppleWebKit/537.36 (KHTML, like Gecko) Chrome/106.0.0.0 Safari/537.36" etag="tsCuwRpp0q31TK0Ix2eq" version="20.4.1" type="github">
  <diagram id="BWvjsEKFoyQ4_GxHlcwb" name="第 1 页">
    <mxGraphModel dx="1582" dy="1607" grid="1" gridSize="10" guides="1" tooltips="1" connect="1" arrows="1" fold="1" page="1" pageScale="1" pageWidth="827" pageHeight="1169" math="0" shadow="0">
      <root>
        <mxCell id="0" />
        <mxCell id="1" parent="0" />
        <mxCell id="gwQ0a3mAaTZzaw8QQIWU-4" value="" style="shape=image;imageAspect=0;aspect=fixed;verticalLabelPosition=bottom;verticalAlign=top;fillStyle=auto;fillColor=default;image=https://fastly.jsdelivr.net/gh/5huanghuai/Image@main/image/1667203005118stacked-DeepONet.png;" vertex="1" parent="1">
          <mxGeometry x="-110" y="-90" width="474" height="386" as="geometry" />
        </mxCell>
        <mxCell id="gwQ0a3mAaTZzaw8QQIWU-5" value="" style="rounded=0;whiteSpace=wrap;html=1;fillStyle=auto;fillColor=none;strokeWidth=4;strokeColor=#82b366;" vertex="1" parent="1">
          <mxGeometry x="-110" y="-50" width="340" height="170" as="geometry" />
        </mxCell>
        <mxCell id="gwQ0a3mAaTZzaw8QQIWU-6" value="" style="rounded=0;whiteSpace=wrap;html=1;fillStyle=auto;fillColor=none;strokeWidth=4;strokeColor=#b85450;" vertex="1" parent="1">
          <mxGeometry x="-110" y="126" width="340" height="164" as="geometry" />
        </mxCell>
      </root>
    </mxGraphModel>
  </diagram>
</mxfile>
